<mxfile host="Electron" agent="Mozilla/5.0 (Windows NT 10.0; Win64; x64) AppleWebKit/537.36 (KHTML, like Gecko) draw.io/24.7.17 Chrome/128.0.6613.36 Electron/32.0.1 Safari/537.36" version="24.7.17">
  <diagram name="Page-1" id="edf60f1a-56cd-e834-aa8a-f176f3a09ee4">
    <mxGraphModel dx="993" dy="590" grid="0" gridSize="10" guides="1" tooltips="1" connect="1" arrows="1" fold="1" page="0" pageScale="1" pageWidth="1100" pageHeight="850" background="none" math="0" shadow="0">
      <root>
        <mxCell id="0" />
        <mxCell id="1" parent="0" />
        <mxCell id="uuOioXlDU6anZjG-ha1C-11" value="" style="edgeStyle=orthogonalEdgeStyle;rounded=0;orthogonalLoop=1;jettySize=auto;html=1;" parent="1" source="ogi-cVwxuLuFs3qtHHxP-5" target="uuOioXlDU6anZjG-ha1C-2" edge="1">
          <mxGeometry relative="1" as="geometry" />
        </mxCell>
        <mxCell id="ogi-cVwxuLuFs3qtHHxP-5" value="float* resistors = try_allocate_memory(size)" style="shape=process;whiteSpace=wrap;html=1;backgroundOutline=1;" parent="1" vertex="1">
          <mxGeometry x="450" y="210" width="240" height="70" as="geometry" />
        </mxCell>
        <mxCell id="ogi-cVwxuLuFs3qtHHxP-13" style="edgeStyle=orthogonalEdgeStyle;rounded=0;orthogonalLoop=1;jettySize=auto;html=1;entryX=0.5;entryY=0;entryDx=0;entryDy=0;" parent="1" target="ogi-cVwxuLuFs3qtHHxP-5" edge="1">
          <mxGeometry relative="1" as="geometry">
            <mxPoint x="570" y="170" as="sourcePoint" />
          </mxGeometry>
        </mxCell>
        <mxCell id="XgvkLARswDaGHTRj_nho-15" style="edgeStyle=orthogonalEdgeStyle;rounded=0;orthogonalLoop=1;jettySize=auto;html=1;entryX=1;entryY=0.5;entryDx=0;entryDy=0;exitX=1;exitY=0.5;exitDx=0;exitDy=0;entryPerimeter=0;" parent="1" source="XgvkLARswDaGHTRj_nho-20" target="XgvkLARswDaGHTRj_nho-49" edge="1">
          <mxGeometry relative="1" as="geometry">
            <mxPoint x="703.5" y="1164" as="sourcePoint" />
            <mxPoint x="773.5" y="1344" as="targetPoint" />
            <Array as="points">
              <mxPoint x="735" y="1165" />
              <mxPoint x="735" y="1275" />
            </Array>
          </mxGeometry>
        </mxCell>
        <mxCell id="XgvkLARswDaGHTRj_nho-18" value="no" style="edgeLabel;html=1;align=center;verticalAlign=middle;resizable=0;points=[];" parent="XgvkLARswDaGHTRj_nho-15" vertex="1" connectable="0">
          <mxGeometry x="-0.6381" relative="1" as="geometry">
            <mxPoint as="offset" />
          </mxGeometry>
        </mxCell>
        <mxCell id="XgvkLARswDaGHTRj_nho-16" style="edgeStyle=orthogonalEdgeStyle;rounded=0;orthogonalLoop=1;jettySize=auto;html=1;entryX=0;entryY=0.5;entryDx=0;entryDy=0;exitX=0;exitY=0.5;exitDx=0;exitDy=0;entryPerimeter=0;" parent="1" source="XgvkLARswDaGHTRj_nho-20" target="XgvkLARswDaGHTRj_nho-48" edge="1">
          <mxGeometry relative="1" as="geometry">
            <mxPoint x="423.5" y="1164" as="sourcePoint" />
            <mxPoint x="348.5" y="1344" as="targetPoint" />
            <Array as="points">
              <mxPoint x="452" y="1163" />
              <mxPoint x="400" y="1163" />
              <mxPoint x="400" y="1273" />
            </Array>
          </mxGeometry>
        </mxCell>
        <mxCell id="XgvkLARswDaGHTRj_nho-17" value="yes" style="edgeLabel;html=1;align=center;verticalAlign=middle;resizable=0;points=[];" parent="XgvkLARswDaGHTRj_nho-16" vertex="1" connectable="0">
          <mxGeometry x="-0.5173" y="-4" relative="1" as="geometry">
            <mxPoint as="offset" />
          </mxGeometry>
        </mxCell>
        <mxCell id="XgvkLARswDaGHTRj_nho-20" value="if (value &amp;lt; 1)" style="rhombus;whiteSpace=wrap;html=1;" parent="1" vertex="1">
          <mxGeometry x="451.5" y="1090" width="223" height="150" as="geometry" />
        </mxCell>
        <mxCell id="XgvkLARswDaGHTRj_nho-23" value="int size = get_int()" style="shape=process;whiteSpace=wrap;html=1;backgroundOutline=1;" parent="1" vertex="1">
          <mxGeometry x="450" y="100" width="239" height="70" as="geometry" />
        </mxCell>
        <mxCell id="XgvkLARswDaGHTRj_nho-41" value="" style="edgeStyle=orthogonalEdgeStyle;rounded=0;orthogonalLoop=1;jettySize=auto;html=1;" parent="1" source="XgvkLARswDaGHTRj_nho-40" target="XgvkLARswDaGHTRj_nho-23" edge="1">
          <mxGeometry relative="1" as="geometry" />
        </mxCell>
        <mxCell id="XgvkLARswDaGHTRj_nho-40" value="Начало" style="strokeWidth=1;html=1;shape=mxgraph.flowchart.terminator;whiteSpace=wrap;" parent="1" vertex="1">
          <mxGeometry x="447.5" y="10" width="245.5" height="60" as="geometry" />
        </mxCell>
        <mxCell id="XgvkLARswDaGHTRj_nho-42" value="Конец" style="strokeWidth=1;html=1;shape=mxgraph.flowchart.terminator;whiteSpace=wrap;" parent="1" vertex="1">
          <mxGeometry x="448" y="742" width="244" height="60" as="geometry" />
        </mxCell>
        <mxCell id="uuOioXlDU6anZjG-ha1C-28" value="" style="edgeStyle=orthogonalEdgeStyle;rounded=0;orthogonalLoop=1;jettySize=auto;html=1;" parent="1" source="XgvkLARswDaGHTRj_nho-44" target="uuOioXlDU6anZjG-ha1C-27" edge="1">
          <mxGeometry relative="1" as="geometry" />
        </mxCell>
        <mxCell id="XgvkLARswDaGHTRj_nho-44" value="get_int();" style="strokeWidth=1;html=1;shape=mxgraph.flowchart.terminator;whiteSpace=wrap;" parent="1" vertex="1">
          <mxGeometry x="450.74" y="912" width="225.26" height="60" as="geometry" />
        </mxCell>
        <mxCell id="XgvkLARswDaGHTRj_nho-48" value="&lt;font style=&quot;font-size: 12px;&quot;&gt;abort();&lt;/font&gt;" style="strokeWidth=1;html=1;shape=mxgraph.flowchart.terminator;whiteSpace=wrap;" parent="1" vertex="1">
          <mxGeometry x="442.53" y="1243" width="100" height="60" as="geometry" />
        </mxCell>
        <mxCell id="XgvkLARswDaGHTRj_nho-49" value="&lt;font style=&quot;font-size: 12px;&quot;&gt;return value;&lt;/font&gt;" style="strokeWidth=1;html=1;shape=mxgraph.flowchart.terminator;whiteSpace=wrap;" parent="1" vertex="1">
          <mxGeometry x="583" y="1245" width="100" height="60" as="geometry" />
        </mxCell>
        <mxCell id="uuOioXlDU6anZjG-ha1C-7" value="" style="edgeStyle=orthogonalEdgeStyle;rounded=0;orthogonalLoop=1;jettySize=auto;html=1;" parent="1" source="uuOioXlDU6anZjG-ha1C-2" target="uuOioXlDU6anZjG-ha1C-4" edge="1">
          <mxGeometry relative="1" as="geometry" />
        </mxCell>
        <mxCell id="uuOioXlDU6anZjG-ha1C-15" style="edgeStyle=orthogonalEdgeStyle;rounded=0;orthogonalLoop=1;jettySize=auto;html=1;entryX=1;entryY=0.5;entryDx=0;entryDy=0;" parent="1" source="uuOioXlDU6anZjG-ha1C-2" target="uuOioXlDU6anZjG-ha1C-5" edge="1">
          <mxGeometry relative="1" as="geometry">
            <Array as="points">
              <mxPoint x="699" y="348" />
              <mxPoint x="699" y="576" />
            </Array>
          </mxGeometry>
        </mxCell>
        <mxCell id="uuOioXlDU6anZjG-ha1C-2" value="(int i = 0; i &amp;lt; size; i++)" style="shape=hexagon;perimeter=hexagonPerimeter2;whiteSpace=wrap;html=1;fixedSize=1;" parent="1" vertex="1">
          <mxGeometry x="448" y="308" width="242" height="80" as="geometry" />
        </mxCell>
        <mxCell id="uuOioXlDU6anZjG-ha1C-10" style="edgeStyle=orthogonalEdgeStyle;rounded=0;orthogonalLoop=1;jettySize=auto;html=1;entryX=0;entryY=0.5;entryDx=0;entryDy=0;" parent="1" source="uuOioXlDU6anZjG-ha1C-4" target="uuOioXlDU6anZjG-ha1C-2" edge="1">
          <mxGeometry relative="1" as="geometry">
            <Array as="points">
              <mxPoint x="435" y="474" />
              <mxPoint x="435" y="348" />
            </Array>
          </mxGeometry>
        </mxCell>
        <mxCell id="uuOioXlDU6anZjG-ha1C-4" value="resistors[i] = float_input();" style="shape=process;whiteSpace=wrap;html=1;backgroundOutline=1;" parent="1" vertex="1">
          <mxGeometry x="452.98" y="440" width="230.02" height="70" as="geometry" />
        </mxCell>
        <mxCell id="uuOioXlDU6anZjG-ha1C-13" value="" style="edgeStyle=orthogonalEdgeStyle;rounded=0;orthogonalLoop=1;jettySize=auto;html=1;" parent="1" source="uuOioXlDU6anZjG-ha1C-5" target="uuOioXlDU6anZjG-ha1C-6" edge="1">
          <mxGeometry relative="1" as="geometry" />
        </mxCell>
        <mxCell id="uuOioXlDU6anZjG-ha1C-5" value="float resistance = count_r(resistors, size);" style="shape=process;whiteSpace=wrap;html=1;backgroundOutline=1;" parent="1" vertex="1">
          <mxGeometry x="455" y="539" width="230" height="70" as="geometry" />
        </mxCell>
        <mxCell id="uuOioXlDU6anZjG-ha1C-14" value="" style="edgeStyle=orthogonalEdgeStyle;rounded=0;orthogonalLoop=1;jettySize=auto;html=1;" parent="1" source="uuOioXlDU6anZjG-ha1C-6" target="XgvkLARswDaGHTRj_nho-42" edge="1">
          <mxGeometry relative="1" as="geometry" />
        </mxCell>
        <mxCell id="uuOioXlDU6anZjG-ha1C-6" value="free(resistors);" style="shape=process;whiteSpace=wrap;html=1;backgroundOutline=1;" parent="1" vertex="1">
          <mxGeometry x="455" y="639" width="230" height="70" as="geometry" />
        </mxCell>
        <mxCell id="uuOioXlDU6anZjG-ha1C-16" style="edgeStyle=orthogonalEdgeStyle;rounded=0;orthogonalLoop=1;jettySize=auto;html=1;entryX=1;entryY=0.5;entryDx=0;entryDy=0;exitX=1;exitY=0.5;exitDx=0;exitDy=0;entryPerimeter=0;" parent="1" source="uuOioXlDU6anZjG-ha1C-20" target="uuOioXlDU6anZjG-ha1C-26" edge="1">
          <mxGeometry relative="1" as="geometry">
            <mxPoint x="692.5" y="1599" as="sourcePoint" />
            <mxPoint x="762.5" y="1779" as="targetPoint" />
            <Array as="points">
              <mxPoint x="699" y="1588" />
              <mxPoint x="778" y="1588" />
              <mxPoint x="778" y="1687" />
            </Array>
          </mxGeometry>
        </mxCell>
        <mxCell id="uuOioXlDU6anZjG-ha1C-17" value="no" style="edgeLabel;html=1;align=center;verticalAlign=middle;resizable=0;points=[];" parent="uuOioXlDU6anZjG-ha1C-16" vertex="1" connectable="0">
          <mxGeometry x="-0.6381" relative="1" as="geometry">
            <mxPoint as="offset" />
          </mxGeometry>
        </mxCell>
        <mxCell id="uuOioXlDU6anZjG-ha1C-18" style="edgeStyle=orthogonalEdgeStyle;rounded=0;orthogonalLoop=1;jettySize=auto;html=1;entryX=0;entryY=0.5;entryDx=0;entryDy=0;exitX=0;exitY=0.5;exitDx=0;exitDy=0;entryPerimeter=0;" parent="1" source="uuOioXlDU6anZjG-ha1C-20" target="uuOioXlDU6anZjG-ha1C-25" edge="1">
          <mxGeometry relative="1" as="geometry">
            <mxPoint x="412.5" y="1599" as="sourcePoint" />
            <mxPoint x="337.5" y="1779" as="targetPoint" />
            <Array as="points">
              <mxPoint x="323" y="1588" />
              <mxPoint x="323" y="1687" />
            </Array>
          </mxGeometry>
        </mxCell>
        <mxCell id="uuOioXlDU6anZjG-ha1C-19" value="yes" style="edgeLabel;html=1;align=center;verticalAlign=middle;resizable=0;points=[];" parent="uuOioXlDU6anZjG-ha1C-18" vertex="1" connectable="0">
          <mxGeometry x="-0.5173" y="-4" relative="1" as="geometry">
            <mxPoint as="offset" />
          </mxGeometry>
        </mxCell>
        <mxCell id="uuOioXlDU6anZjG-ha1C-20" value="if (scanf_s(&quot;%d&quot;, &amp;amp;value) != 1)" style="rhombus;whiteSpace=wrap;html=1;" parent="1" vertex="1">
          <mxGeometry x="409" y="1518" width="290" height="150" as="geometry" />
        </mxCell>
        <mxCell id="uuOioXlDU6anZjG-ha1C-31" value="" style="edgeStyle=orthogonalEdgeStyle;rounded=0;orthogonalLoop=1;jettySize=auto;html=1;" parent="1" source="uuOioXlDU6anZjG-ha1C-22" target="uuOioXlDU6anZjG-ha1C-30" edge="1">
          <mxGeometry relative="1" as="geometry" />
        </mxCell>
        <mxCell id="uuOioXlDU6anZjG-ha1C-22" value="&lt;div style=&quot;background-color: rgb(255, 255, 255);&quot;&gt;&lt;pre style=&quot;&quot;&gt;&lt;span style=&quot;font-family: Helvetica; white-space: normal; background-color: rgb(251, 251, 251);&quot;&gt;int_input&lt;/span&gt;&lt;font face=&quot;JetBrains Mono, monospace&quot;&gt;&lt;font color=&quot;#202020&quot;&gt;&lt;br&gt;&lt;/font&gt;&lt;/font&gt;&lt;/pre&gt;&lt;/div&gt;" style="strokeWidth=1;html=1;shape=mxgraph.flowchart.terminator;whiteSpace=wrap;" parent="1" vertex="1">
          <mxGeometry x="408.5" y="1346" width="291" height="60" as="geometry" />
        </mxCell>
        <mxCell id="uuOioXlDU6anZjG-ha1C-25" value="&lt;font style=&quot;font-size: 12px;&quot;&gt;abort();&lt;/font&gt;" style="strokeWidth=1;html=1;shape=mxgraph.flowchart.terminator;whiteSpace=wrap;" parent="1" vertex="1">
          <mxGeometry x="404" y="1657" width="100" height="60" as="geometry" />
        </mxCell>
        <mxCell id="uuOioXlDU6anZjG-ha1C-26" value="&lt;font style=&quot;font-size: 12px;&quot;&gt;return value;&lt;/font&gt;" style="strokeWidth=1;html=1;shape=mxgraph.flowchart.terminator;whiteSpace=wrap;" parent="1" vertex="1">
          <mxGeometry x="601" y="1657" width="100" height="60" as="geometry" />
        </mxCell>
        <mxCell id="uuOioXlDU6anZjG-ha1C-29" value="" style="edgeStyle=orthogonalEdgeStyle;rounded=0;orthogonalLoop=1;jettySize=auto;html=1;" parent="1" source="uuOioXlDU6anZjG-ha1C-27" target="XgvkLARswDaGHTRj_nho-20" edge="1">
          <mxGeometry relative="1" as="geometry" />
        </mxCell>
        <mxCell id="uuOioXlDU6anZjG-ha1C-27" value="int value = int_input();" style="shape=process;whiteSpace=wrap;html=1;backgroundOutline=1;" parent="1" vertex="1">
          <mxGeometry x="452.5" y="995" width="222" height="70" as="geometry" />
        </mxCell>
        <mxCell id="uuOioXlDU6anZjG-ha1C-32" value="" style="edgeStyle=orthogonalEdgeStyle;rounded=0;orthogonalLoop=1;jettySize=auto;html=1;" parent="1" source="uuOioXlDU6anZjG-ha1C-30" target="uuOioXlDU6anZjG-ha1C-20" edge="1">
          <mxGeometry relative="1" as="geometry" />
        </mxCell>
        <mxCell id="uuOioXlDU6anZjG-ha1C-30" value="int value = 0;" style="rounded=0;whiteSpace=wrap;html=1;" parent="1" vertex="1">
          <mxGeometry x="407" y="1432" width="294" height="60" as="geometry" />
        </mxCell>
        <mxCell id="uuOioXlDU6anZjG-ha1C-33" style="edgeStyle=orthogonalEdgeStyle;rounded=0;orthogonalLoop=1;jettySize=auto;html=1;entryX=1;entryY=0.5;entryDx=0;entryDy=0;exitX=1;exitY=0.5;exitDx=0;exitDy=0;entryPerimeter=0;" parent="1" source="uuOioXlDU6anZjG-ha1C-37" target="uuOioXlDU6anZjG-ha1C-41" edge="1">
          <mxGeometry relative="1" as="geometry">
            <mxPoint x="669.53" y="2024" as="sourcePoint" />
            <mxPoint x="739.53" y="2204" as="targetPoint" />
            <Array as="points">
              <mxPoint x="720" y="2024" />
              <mxPoint x="720" y="2108" />
            </Array>
          </mxGeometry>
        </mxCell>
        <mxCell id="uuOioXlDU6anZjG-ha1C-34" value="no" style="edgeLabel;html=1;align=center;verticalAlign=middle;resizable=0;points=[];" parent="uuOioXlDU6anZjG-ha1C-33" vertex="1" connectable="0">
          <mxGeometry x="-0.6381" relative="1" as="geometry">
            <mxPoint as="offset" />
          </mxGeometry>
        </mxCell>
        <mxCell id="uuOioXlDU6anZjG-ha1C-35" style="edgeStyle=orthogonalEdgeStyle;rounded=0;orthogonalLoop=1;jettySize=auto;html=1;entryX=0;entryY=0.5;entryDx=0;entryDy=0;exitX=0;exitY=0.5;exitDx=0;exitDy=0;entryPerimeter=0;" parent="1" source="uuOioXlDU6anZjG-ha1C-37" target="uuOioXlDU6anZjG-ha1C-40" edge="1">
          <mxGeometry relative="1" as="geometry">
            <mxPoint x="389.53" y="2024" as="sourcePoint" />
            <mxPoint x="314.53" y="2204" as="targetPoint" />
            <Array as="points">
              <mxPoint x="384" y="2022" />
              <mxPoint x="347" y="2022" />
              <mxPoint x="347" y="2112" />
              <mxPoint x="384" y="2112" />
            </Array>
          </mxGeometry>
        </mxCell>
        <mxCell id="uuOioXlDU6anZjG-ha1C-36" value="yes" style="edgeLabel;html=1;align=center;verticalAlign=middle;resizable=0;points=[];" parent="uuOioXlDU6anZjG-ha1C-35" vertex="1" connectable="0">
          <mxGeometry x="-0.5173" y="-4" relative="1" as="geometry">
            <mxPoint as="offset" />
          </mxGeometry>
        </mxCell>
        <mxCell id="uuOioXlDU6anZjG-ha1C-37" value="if (array == NULL)" style="rhombus;whiteSpace=wrap;html=1;" parent="1" vertex="1">
          <mxGeometry x="383.76" y="1949" width="290" height="150" as="geometry" />
        </mxCell>
        <mxCell id="uuOioXlDU6anZjG-ha1C-38" value="" style="edgeStyle=orthogonalEdgeStyle;rounded=0;orthogonalLoop=1;jettySize=auto;html=1;" parent="1" source="uuOioXlDU6anZjG-ha1C-39" target="uuOioXlDU6anZjG-ha1C-43" edge="1">
          <mxGeometry relative="1" as="geometry" />
        </mxCell>
        <mxCell id="uuOioXlDU6anZjG-ha1C-39" value="&lt;div style=&quot;background-color: rgb(255, 255, 255);&quot;&gt;&lt;pre style=&quot;&quot;&gt;&lt;font style=&quot;&quot;&gt;&lt;font face=&quot;Helvetica&quot;&gt;&lt;span style=&quot;white-space: normal;&quot;&gt;try_allocate_memory&lt;/span&gt;&lt;/font&gt;&lt;font face=&quot;JetBrains Mono, monospace&quot; color=&quot;#202020&quot;&gt;&lt;br&gt;&lt;/font&gt;&lt;/font&gt;&lt;/pre&gt;&lt;/div&gt;" style="strokeWidth=1;html=1;shape=mxgraph.flowchart.terminator;whiteSpace=wrap;" parent="1" vertex="1">
          <mxGeometry x="386.53" y="1772" width="284.47" height="60" as="geometry" />
        </mxCell>
        <mxCell id="uuOioXlDU6anZjG-ha1C-40" value="&lt;font style=&quot;font-size: 12px;&quot;&gt;abort();&lt;/font&gt;" style="strokeWidth=1;html=1;shape=mxgraph.flowchart.terminator;whiteSpace=wrap;" parent="1" vertex="1">
          <mxGeometry x="383.76" y="2078" width="100" height="60" as="geometry" />
        </mxCell>
        <mxCell id="uuOioXlDU6anZjG-ha1C-41" value="&lt;font style=&quot;font-size: 12px;&quot;&gt;return value;&lt;/font&gt;" style="strokeWidth=1;html=1;shape=mxgraph.flowchart.terminator;whiteSpace=wrap;" parent="1" vertex="1">
          <mxGeometry x="581" y="2078" width="100" height="60" as="geometry" />
        </mxCell>
        <mxCell id="uuOioXlDU6anZjG-ha1C-42" value="" style="edgeStyle=orthogonalEdgeStyle;rounded=0;orthogonalLoop=1;jettySize=auto;html=1;" parent="1" source="uuOioXlDU6anZjG-ha1C-43" target="uuOioXlDU6anZjG-ha1C-37" edge="1">
          <mxGeometry relative="1" as="geometry" />
        </mxCell>
        <mxCell id="uuOioXlDU6anZjG-ha1C-43" value="float* array = malloc(size * sizeof(float));" style="rounded=0;whiteSpace=wrap;html=1;" parent="1" vertex="1">
          <mxGeometry x="385.53" y="1865" width="286.47" height="60" as="geometry" />
        </mxCell>
        <mxCell id="uuOioXlDU6anZjG-ha1C-49" value="" style="edgeStyle=orthogonalEdgeStyle;rounded=0;orthogonalLoop=1;jettySize=auto;html=1;" parent="1" source="uuOioXlDU6anZjG-ha1C-50" target="uuOioXlDU6anZjG-ha1C-54" edge="1">
          <mxGeometry relative="1" as="geometry" />
        </mxCell>
        <mxCell id="uuOioXlDU6anZjG-ha1C-50" value="&lt;div style=&quot;background-color: rgb(255, 255, 255);&quot;&gt;&lt;pre style=&quot;&quot;&gt;&lt;font style=&quot;&quot;&gt;&lt;font face=&quot;Helvetica&quot;&gt;&lt;span style=&quot;white-space: normal;&quot;&gt;count_r&lt;/span&gt;&lt;/font&gt;&lt;font face=&quot;JetBrains Mono, monospace&quot; color=&quot;#202020&quot;&gt;&lt;br&gt;&lt;/font&gt;&lt;/font&gt;&lt;/pre&gt;&lt;/div&gt;" style="strokeWidth=1;html=1;shape=mxgraph.flowchart.terminator;whiteSpace=wrap;" parent="1" vertex="1">
          <mxGeometry x="424" y="2587" width="220" height="60" as="geometry" />
        </mxCell>
        <mxCell id="uuOioXlDU6anZjG-ha1C-60" value="" style="edgeStyle=orthogonalEdgeStyle;rounded=0;orthogonalLoop=1;jettySize=auto;html=1;" parent="1" source="uuOioXlDU6anZjG-ha1C-54" target="uuOioXlDU6anZjG-ha1C-56" edge="1">
          <mxGeometry relative="1" as="geometry" />
        </mxCell>
        <mxCell id="uuOioXlDU6anZjG-ha1C-54" value="float sum = 0;" style="rounded=0;whiteSpace=wrap;html=1;" parent="1" vertex="1">
          <mxGeometry x="424" y="2679" width="220" height="60" as="geometry" />
        </mxCell>
        <mxCell id="uuOioXlDU6anZjG-ha1C-61" value="" style="edgeStyle=orthogonalEdgeStyle;rounded=0;orthogonalLoop=1;jettySize=auto;html=1;" parent="1" source="uuOioXlDU6anZjG-ha1C-56" target="uuOioXlDU6anZjG-ha1C-59" edge="1">
          <mxGeometry relative="1" as="geometry" />
        </mxCell>
        <mxCell id="uuOioXlDU6anZjG-ha1C-56" value="(int i = 0; i &amp;lt; size; i++)" style="shape=hexagon;perimeter=hexagonPerimeter2;whiteSpace=wrap;html=1;fixedSize=1;" parent="1" vertex="1">
          <mxGeometry x="423" y="2772" width="221" height="80" as="geometry" />
        </mxCell>
        <mxCell id="uuOioXlDU6anZjG-ha1C-59" value="sum += resistors[i];" style="rounded=0;whiteSpace=wrap;html=1;" parent="1" vertex="1">
          <mxGeometry x="430.76" y="2895" width="205.24" height="60" as="geometry" />
        </mxCell>
        <mxCell id="uuOioXlDU6anZjG-ha1C-62" style="edgeStyle=orthogonalEdgeStyle;rounded=0;orthogonalLoop=1;jettySize=auto;html=1;entryX=0.005;entryY=0.451;entryDx=0;entryDy=0;entryPerimeter=0;" parent="1" source="uuOioXlDU6anZjG-ha1C-59" target="uuOioXlDU6anZjG-ha1C-56" edge="1">
          <mxGeometry relative="1" as="geometry">
            <Array as="points">
              <mxPoint x="424" y="2925" />
            </Array>
          </mxGeometry>
        </mxCell>
        <mxCell id="uuOioXlDU6anZjG-ha1C-63" value="&lt;div style=&quot;background-color: rgb(255, 255, 255);&quot;&gt;&lt;pre style=&quot;&quot;&gt;&lt;font style=&quot;&quot;&gt;&lt;font face=&quot;Helvetica&quot;&gt;&lt;span style=&quot;white-space: normal;&quot;&gt;sum&lt;/span&gt;&lt;/font&gt;&lt;font face=&quot;JetBrains Mono, monospace&quot; color=&quot;#202020&quot;&gt;&lt;br&gt;&lt;/font&gt;&lt;/font&gt;&lt;/pre&gt;&lt;/div&gt;" style="strokeWidth=1;html=1;shape=mxgraph.flowchart.terminator;whiteSpace=wrap;" parent="1" vertex="1">
          <mxGeometry x="430.76" y="2980" width="206.24" height="60" as="geometry" />
        </mxCell>
        <mxCell id="il_Hap-Nplp-HmYMcgyv-1" style="edgeStyle=orthogonalEdgeStyle;rounded=0;orthogonalLoop=1;jettySize=auto;html=1;entryX=1;entryY=0.5;entryDx=0;entryDy=0;entryPerimeter=0;" edge="1" parent="1" source="uuOioXlDU6anZjG-ha1C-56" target="uuOioXlDU6anZjG-ha1C-63">
          <mxGeometry relative="1" as="geometry">
            <Array as="points">
              <mxPoint x="664" y="2812" />
              <mxPoint x="664" y="3010" />
            </Array>
          </mxGeometry>
        </mxCell>
      </root>
    </mxGraphModel>
  </diagram>
</mxfile>
